<svg width="723" height="140" viewBox="0 0 723 140" fill="none" xmlns="http://www.w3.org/2000/svg">
<path d="M535.9 8.03027C553.401 9.38371 570.892 10.9412 588.394 12.6924C602.15 36.8077 615.908 61.0522 629.665 85.416L630.068 86.1309L630.519 85.4443C644.33 64.3734 658.131 43.4408 671.942 22.6279C688.795 24.9462 705.648 27.4494 722.5 30.1465V139.033C710.503 137.119 698.497 135.291 686.5 133.566V56.2764L685.587 57.6191C669.914 80.6459 654.229 103.831 638.556 127.186C632.039 126.379 625.522 125.611 619.006 124.871C603.318 97.7841 587.62 70.866 571.932 44.1074L571 42.5186V119.911C559.303 118.825 547.597 117.833 535.9 116.927V8.03027ZM126 37.1699C96.3431 40.2609 66.6861 43.9359 37.0293 48.1953L36.5996 48.2568V65.5674L37.1709 65.4854C66.0808 61.3327 94.9907 57.7325 123.9 54.6953V78.8896C94.9432 81.9305 65.9862 85.5359 37.0293 89.6953L36.5996 89.7568V108.767L37.1709 108.685C67.3104 104.352 97.46 100.632 127.6 97.5146V122.109C85.2329 126.493 42.8665 132.069 0.5 138.835V29.7461C42.3366 23.0573 84.1635 17.5402 126 13.1748V37.1699ZM479.7 53.6318L479.4 53.5117V3.57715C491.537 4.2125 503.664 4.94176 515.8 5.7666V58.2002C515.8 62.7559 515.206 67.2766 514.113 71.874C513.029 76.4276 510.856 81.3264 507.578 86.4814C504.313 91.6158 500.056 96.0926 495.001 99.8594L494.998 99.8613C490.183 103.507 483.474 106.389 474.838 108.648C474.618 108.652 474.441 108.717 474.335 108.754C474.198 108.802 474.159 108.812 474.116 108.811L474.047 108.808L473.979 108.825C465.313 110.992 455.421 111.939 444.208 111.606L443.118 111.57C415.912 110.59 388.706 110.1 361.5 110.1C289.366 110.1 217.233 113.553 145.1 120.46V9.56348C156.496 8.46809 167.903 7.46775 179.3 6.55176V90.6514L179.84 90.6084C240.397 85.7395 300.943 83.2998 361.5 83.2998C364.729 83.2998 367.968 83.3103 371.198 83.3203L372.083 83.3223L371.629 82.5635C369.951 79.7579 368.456 76.8849 367.299 73.7695L367.071 73.1436L367.066 73.1309C365.672 69.4968 364.802 66.1356 364.291 63.1211L364.194 62.5225C363.699 59.2518 363.5 56.0782 363.5 52.9004V0.5C375.667 0.512333 387.833 0.619727 400 0.831055V51.2402C400 55.193 400.608 58.8547 401.724 62.3232C402.846 65.8138 404.781 69.1968 407.51 72.5928L407.511 72.5938C410.284 76.0351 414.472 78.7688 420.026 80.8291V80.8281C425.241 82.7717 431.504 83.9454 438.561 84.2998L439.982 84.3594C447.622 84.6308 454.18 83.8883 459.646 82.208H459.647C465.099 80.5219 469.294 78.0836 472.075 74.8213C474.912 71.6096 476.85 68.3513 477.975 64.9365V64.9355C479.091 61.5353 479.7 57.9227 479.7 53.9697V53.6318Z" fill="white" stroke="black"/>
</svg>
