<?xml version="1.0" encoding="UTF-8"?>
<svg id="Layer_1" data-name="Layer 1" xmlns="http://www.w3.org/2000/svg" version="1.1" viewBox="0 0 752 136">
  <defs>
    <style>
      .cls-1 {
        fill: #fff;
        stroke-width: 0px;
      }
    </style>
  </defs>
  <polygon class="cls-1" points="52.1 80.7 139.4 80.7 139.4 55.5 52.1 55.5 52.1 39.2 141.5 39.2 141.5 14.2 15 14.2 15 124.3 143.1 124.3 143.1 98.7 52.1 98.7 52.1 80.7"/>
  <path class="cls-1" d="M494.2,64.7c0,3.9-.6,7.5-1.7,10.9s-3,6.7-5.8,10c-2.7,3.3-6.8,5.9-12.2,7.8-5.4,1.9-11.9,2.9-19.5,2.9s-14.3-1-19.8-2.9c-5.5-1.9-9.6-4.5-12.3-7.8-2.7-3.3-4.6-6.6-5.7-10-1.1-3.4-1.7-7-1.7-10.9V13.8h-37.5v52.9c0,3.2.2,6.4.7,9.7.5,3.2,1.4,6.8,2.9,10.7,1.2,3.4,2.8,6.5,4.6,9.5h-191.4V12.5h-35.2v111.9h298.5c11.7,0,22-1.4,31-4.1.3,0,.5-.2.8-.2,8.7-2.7,15.5-6,20.4-10,5.1-4.1,9.4-8.9,12.7-14.3,3.3-5.4,5.5-10.5,6.6-15.2,1.1-4.7,1.7-9.3,1.7-13.9V13.8h-37.4v50.8Z"/>
  <polygon class="cls-1" points="686.7 14.6 645.1 83 603.7 14.6 550.4 14.6 550.4 124.5 586.5 124.5 586.5 48.4 633.7 124.5 653.8 124.5 701 48.4 701 124.5 738 124.5 738 14.6 686.7 14.6"/>
</svg>