<?xml version="1.0" encoding="UTF-8"?>
<svg id="Layer_1" data-name="Layer 1" xmlns="http://www.w3.org/2000/svg" version="1.1" viewBox="0 0 182.6 413.4">
  <defs>
    <style>
      .cls-1 {
        fill: #fff;
        stroke-width: 0px;
      }
    </style>
  </defs>
  <path class="cls-1" d="M95.1,355.3c-3.9,0-7.5-.6-10.9-1.7s-6.7-3-10-5.8c-3.3-2.7-5.9-6.8-7.8-12.2-1.9-5.4-2.9-11.9-2.9-19.5s1-14.3,2.9-19.8c1.9-5.5,4.5-9.6,7.8-12.3,3.3-2.7,6.6-4.6,10-5.7,3.4-1.1,7-1.7,10.9-1.7h50.8v-37.5h-52.9c-3.2,0-6.4.2-9.7.7-3.2.5-6.8,1.4-10.7,2.9-3.4,1.2-6.5,2.8-9.5,4.6V56h84.1V20.8H35.3v298.5c0,11.7,1.4,22,4.1,31,0,.3.2.5.2.8,2.7,8.7,6,15.5,10,20.4,4.1,5.1,8.9,9.4,14.3,12.7,5.4,3.3,10.5,5.5,15.2,6.6,4.7,1.1,9.3,1.7,13.9,1.7h52.9v-37.4h-50.8Z"/>
</svg>