<svg width="183" height="414" viewBox="0 0 183 414" fill="none" xmlns="http://www.w3.org/2000/svg">
<path d="M95.1008 355.3C91.2008 355.3 87.6008 354.7 84.2008 353.6C80.8008 352.5 77.5008 350.6 74.2008 347.8C70.9008 345.1 68.3008 341 66.4008 335.6C64.5008 330.2 63.5008 323.7 63.5008 316.1C63.5008 308.5 64.5008 301.8 66.4008 296.3C68.3008 290.8 70.9008 286.7 74.2008 284C77.5008 281.3 80.8008 279.4 84.2008 278.3C87.6008 277.2 91.2008 276.6 95.1008 276.6H145.901V239.1H93.0008C89.8008 239.1 86.6008 239.3 83.3008 239.8C80.1008 240.3 76.5008 241.2 72.6008 242.7C69.2008 243.9 66.1008 245.5 63.1008 247.3V55.9998H147.201V20.7998H35.3008V319.3C35.3008 331 36.7008 341.3 39.4008 350.3C39.4008 350.6 39.6008 350.8 39.6008 351.1C42.3008 359.8 45.6008 366.6 49.6008 371.5C53.7008 376.6 58.5008 380.9 63.9008 384.2C69.3008 387.5 74.4008 389.7 79.1008 390.8C83.8008 391.9 88.4008 392.5 93.0008 392.5H145.901V355.1H95.1008V355.3Z" fill="#05080F"/>
</svg>
