<svg width="40" height="40" viewBox="0 0 40 40" fill="none" xmlns="http://www.w3.org/2000/svg">
<path d="M24.8933 39.9564C24.8993 39.8972 24.9025 39.8373 24.9031 39.7769V25.3723H29.8267C30.616 25.3723 31.3262 24.8522 31.4418 24.0708C31.5966 22.9753 31.5921 21.8632 31.4284 20.769C31.3147 20.0018 30.632 19.4977 29.8569 19.4977H24.9031C24.9031 15.058 25.6418 14.4126 29.8053 14.3308C30.6044 14.3157 31.3209 13.7885 31.4373 12.9973C31.6329 11.6682 31.5547 10.5072 31.432 9.69018C31.3191 8.93541 30.6427 8.44379 29.88 8.45002C22.5209 8.51402 18.3298 9.38436 18.3298 19.4968H14.5173C13.7769 19.4968 13.1191 19.9618 13.0062 20.6934C12.8862 21.4829 12.8133 22.627 13.0151 24.0183C13.1307 24.822 13.8542 25.3723 14.6658 25.3723H18.3298V40C12.632 39.9627 8.55378 39.7377 5.89867 39.5217C2.976 39.2844 0.720889 37.0289 0.483555 34.1059C0.247111 31.1979 0 26.5822 0 20.0027C0 13.4231 0.247111 8.8074 0.483555 5.89945C0.72 2.9764 2.976 0.720096 5.89867 0.48362C8.80622 0.247144 13.4213 0 20 0C26.5787 0 31.1938 0.247144 34.1013 0.48362C37.024 0.720985 39.2791 2.9764 39.5164 5.89945C39.7529 8.8074 40 13.4231 40 20.0027C40 26.5822 39.7529 31.1979 39.5164 34.1059C39.2791 37.0289 37.024 39.2844 34.1013 39.5217C31.9769 39.6942 28.9413 39.872 24.8933 39.9564Z" fill="white"/>
</svg>
