<svg width="40" height="41" viewBox="0 0 40 41" fill="none" xmlns="http://www.w3.org/2000/svg">
<path d="M20.0001 12.9609C18.1246 12.9609 16.326 13.706 14.9999 15.0321C13.6737 16.3582 12.9287 18.1569 12.9287 20.0323C12.9287 21.9078 13.6737 23.7064 14.9999 25.0325C16.326 26.3587 18.1246 27.1037 20.0001 27.1037C21.8755 27.1037 23.6742 26.3587 25.0003 25.0325C26.3264 23.7064 27.0715 21.9078 27.0715 20.0323C27.0715 18.1569 26.3264 16.3582 25.0003 15.0321C23.6742 13.706 21.8755 12.9609 20.0001 12.9609Z" fill="white"/>
<path fill-rule="evenodd" clip-rule="evenodd" d="M8.62058 0.628381C16.1838 -0.20946 23.8164 -0.20946 31.3795 0.628381C35.5114 1.08965 38.8426 4.34249 39.3278 8.48958C40.2241 16.1586 40.2241 23.9059 39.3278 31.5749C38.8426 35.722 35.5114 38.9748 31.3817 39.4383C23.8178 40.2763 16.1845 40.2763 8.62058 39.4383C4.48872 38.9748 1.15756 35.722 0.672354 31.5771C-0.224118 23.9074 -0.224118 16.1593 0.672354 8.48958C1.15756 4.34249 4.48872 1.08965 8.62058 0.628381ZM30.8791 6.97739C30.302 6.97739 29.7486 7.20663 29.3406 7.61467C28.9325 8.02271 28.7033 8.57614 28.7033 9.1532C28.7033 9.73026 28.9325 10.2837 29.3406 10.6917C29.7486 11.0998 30.302 11.329 30.8791 11.329C31.4562 11.329 32.0096 11.0998 32.4176 10.6917C32.8257 10.2837 33.0549 9.73026 33.0549 9.1532C33.0549 8.57614 32.8257 8.02271 32.4176 7.61467C32.0096 7.20663 31.4562 6.97739 30.8791 6.97739ZM9.66497 20.0322C9.66497 17.2912 10.7538 14.6624 12.6921 12.7242C14.6303 10.786 17.259 9.69715 20.0001 9.69715C22.7411 9.69715 25.3699 10.786 27.3081 12.7242C29.2463 14.6624 30.3352 17.2912 30.3352 20.0322C30.3352 22.7733 29.2463 25.402 27.3081 27.3403C25.3699 29.2785 22.7411 30.3673 20.0001 30.3673C17.259 30.3673 14.6303 29.2785 12.6921 27.3403C10.7538 25.402 9.66497 22.7733 9.66497 20.0322Z" fill="white"/>
</svg>
